<svg xmlns="http://www.w3.org/2000/svg" width="80" height="80" viewBox="0 0 80 80" fill="none">
  <g clip-path="url(#clip0_22147_2697)">
    <path fill-rule="evenodd" clip-rule="evenodd" d="M40.819 13.4663C38.0022 13.4663 35.7187 15.7497 35.7187 18.5665C35.7187 21.3834 38.0022 23.6668 40.819 23.6668C43.6358 23.6668 45.9193 21.3834 45.9193 18.5665C45.9193 15.7497 43.6358 13.4663 40.819 13.4663ZM33.6786 18.5665C33.6786 14.623 36.8754 11.4261 40.819 11.4261C44.7625 11.4261 47.9594 14.623 47.9594 18.5665C47.9594 22.5101 44.7625 25.7069 40.819 25.7069C36.8754 25.7069 33.6786 22.5101 33.6786 18.5665Z" fill="#000091"/>
    <path d="M35.729 25.7179C36.2922 25.718 36.7485 26.1751 36.7485 26.7384C36.7483 27.3015 36.2921 27.7578 35.729 27.7579C32.9159 27.7579 30.6284 30.0455 30.6284 32.8585V42.9669C30.6284 45.181 32.0447 47.0622 34.0219 47.7697C34.4276 47.9148 34.6987 48.2997 34.6987 48.7306V64.4904C34.6988 65.6202 35.6088 66.5304 36.7387 66.5304H44.7837C44.8281 66.5245 44.8734 66.5206 44.9194 66.5206C45.0573 66.5206 45.1917 66.5055 45.3217 66.4796C45.7063 66.3938 46.0505 66.201 46.3198 65.9318C46.3649 65.8866 46.4135 65.8466 46.4643 65.8116C46.7721 65.4546 46.9594 64.99 46.9594 64.4796C46.9597 63.9166 47.4159 63.4603 47.979 63.4601C48.5422 63.4601 48.9993 63.9164 48.9995 64.4796C48.9995 66.4562 47.6004 68.1009 45.7368 68.4786C45.4602 68.5382 45.173 68.5704 44.8784 68.5704H36.7387C34.4821 68.5704 32.6587 66.747 32.6587 64.4904V49.4093C30.2595 48.2613 28.5883 45.8166 28.5883 42.9669V32.8585C28.5883 28.9188 31.7892 25.7179 35.729 25.7179Z" fill="#000091"/>
    <path fill-rule="evenodd" clip-rule="evenodd" d="M35.7087 31.8273C36.2721 31.8273 36.7288 32.284 36.7288 32.8473V43.1193C36.7288 43.6827 36.2721 44.1394 35.7087 44.1394C35.1454 44.1394 34.6887 43.6827 34.6887 43.1193V32.8473C34.6887 32.284 35.1454 31.8273 35.7087 31.8273Z" fill="#000091"/>
    <path d="M45.9309 25.7179C49.8705 25.7181 53.0706 28.9189 53.0706 32.8585V42.9669C53.0706 45.8288 51.38 48.2836 48.9602 49.424V50.1993C48.9602 50.7627 48.503 51.2189 47.9397 51.2189C47.3765 51.2187 46.9202 50.7626 46.9202 50.1993V48.7404C46.9202 48.6163 46.9439 48.4966 46.9856 48.3849C46.969 48.312 46.9602 48.2362 46.9602 48.1583V43.0275C46.9602 42.4641 47.4174 42.007 47.9807 42.007C48.544 42.0071 49.0002 42.4642 49.0002 43.0275V47.0265C50.233 46.0947 51.0305 44.6233 51.0305 42.9669V32.8585C51.0305 30.0456 48.7437 27.7582 45.9309 27.7579C45.3677 27.7579 44.9106 27.3016 44.9104 26.7384C44.9104 26.175 45.3675 25.7179 45.9309 25.7179Z" fill="#000091"/>
    <path fill-rule="evenodd" clip-rule="evenodd" d="M41.8689 52.2484C41.3069 52.2484 40.8489 52.7028 40.8489 53.2684C40.8489 53.8318 40.3922 54.2885 39.8288 54.2885C39.2654 54.2885 38.8087 53.8318 38.8087 53.2684C38.8087 51.5695 40.1868 50.2083 41.8689 50.2083H54.079C55.7779 50.2083 57.1392 51.5863 57.1392 53.2684V59.3582C57.1392 61.0571 55.7611 62.4183 54.079 62.4183H41.8689C40.17 62.4183 38.8087 61.0403 38.8087 59.3582V58.3687C38.8087 57.8053 39.2654 57.3486 39.8288 57.3486C40.3922 57.3486 40.8489 57.8053 40.8489 58.3687V59.3582C40.8489 59.9202 41.3033 60.3782 41.8689 60.3782H54.079C54.641 60.3782 55.099 59.9237 55.099 59.3582V53.2684C55.099 52.7064 54.6446 52.2484 54.079 52.2484H41.8689Z" fill="#E1000F"/>
  </g>
  <defs>
    <clipPath id="clip0_22147_2697">
      <rect width="80" height="80" fill="white"/>
    </clipPath>
  </defs>
</svg>